<?xml version="1.0" encoding="UTF-8"?>
<svg width="100px" height="100px" viewBox="0 0 100 100" version="1.1" xmlns="http://www.w3.org/2000/svg" xmlns:xlink="http://www.w3.org/1999/xlink">
    <!-- Generator: Sketch 52.1 (67048) - http://www.bohemiancoding.com/sketch -->
    <title>Group</title>
    <desc>Created with Sketch.</desc>
    <g id="Page-1" stroke="none" stroke-width="1" fill="none" fill-rule="evenodd">
        <g id="noun_Brain_1864520" fill="#000000">
            <g id="Group">
                <path d="M39.93161,100 C36.43054,100 33.09652,98.30204 30.8817,95.47603 C29.22501,96.35842 27.45924,96.80453 25.6129,96.80453 C20.45711,96.80453 15.94198,93.15705 14.40222,87.94329 C8.22746,87.57185 3.30847,82.0181 3.30847,75.24197 C3.30847,74.76049 3.33402,74.27507 3.38413,73.78966 C1.19585,71.4019 0,68.26539 0,64.85963 C0,60.98812 1.64195,57.34653 4.36872,54.99218 C3.39888,53.08983 2.90855,51.02437 2.90855,48.83019 C2.90855,44.54991 4.98286,40.53887 8.30017,38.20515 C7.79412,36.76267 7.5298,35.25435 7.5298,33.7706 C7.5298,27.89749 11.23722,22.87239 16.3822,21.4417 C16.37532,21.27269 16.37139,21.10368 16.37139,20.93565 C16.37139,13.92074 21.66868,8.2137 28.18049,8.2137 C28.41828,8.2137 28.65018,8.22156 28.8752,8.23532 C30.55351,3.31437 34.90651,0 39.93161,0 C46.41099,0 51.68273,5.68149 51.68273,12.66397 C51.68273,13.60925 50.91629,14.37569 49.97101,14.37569 C49.02573,14.37569 48.25929,13.60925 48.25929,12.66397 C48.25929,7.56812 44.52338,3.42343 39.93161,3.42343 C36.02374,3.42343 32.67694,6.33689 31.79357,10.50909 C31.69531,10.96994 31.41231,11.37085 31.00944,11.61552 C30.60755,11.86019 30.12312,11.92897 29.6662,11.80516 C29.26627,11.69511 28.75237,11.63713 28.18048,11.63713 C23.55628,11.63713 19.79482,15.80834 19.79482,20.93564 C19.79482,21.51146 19.84886,22.08727 19.90094,22.66406 C19.98446,23.58281 19.32513,24.40231 18.40933,24.51629 C14.15853,25.0469 10.95323,29.02552 10.95323,33.77058 C10.95323,35.24647 11.30894,36.76461 11.98105,38.1619 C12.38294,38.99712 12.04787,40.00038 11.22443,40.42487 C8.25201,41.9607 6.33198,45.25935 6.33198,48.83018 C6.33198,50.88975 6.90681,52.79701 8.04075,54.4989 C8.29623,54.88212 8.38663,55.35181 8.29132,55.80382 C8.19601,56.25386 7.92284,56.64691 7.53372,56.89256 C4.99758,58.50209 3.42343,61.5541 3.42343,64.85962 C3.42343,67.6306 4.46894,70.1461 6.36833,71.94626 C6.78103,72.33734 6.97264,72.90922 6.87929,73.46932 C6.78103,74.05692 6.7319,74.65436 6.7319,75.24196 C6.73288,80.42233 10.55428,84.58469 15.20108,84.54145 C15.24628,84.54145 15.29246,84.53949 15.33766,84.53163 C16.26722,84.37441 17.26163,84.96398 17.42867,85.89157 C18.20887,90.23081 21.65098,93.38108 25.61289,93.38108 C27.2912,93.38108 28.89287,92.83868 30.37072,91.76762 C30.76475,91.48266 31.25901,91.38047 31.73459,91.48069 C32.20919,91.58092 32.61796,91.87963 32.85969,92.30216 C34.37194,94.9395 37.082,96.57654 39.93159,96.57654 C44.52336,96.57654 48.25927,92.40631 48.25927,87.27902 C48.25927,86.33374 49.02571,85.5673 49.97099,85.5673 C50.91627,85.5673 51.68271,86.33374 51.68271,87.27902 C51.68273,94.29296 46.41099,100 39.93161,100 Z" id="Path"></path>
                <path d="M49.97101,88.99075 C49.02573,88.99075 48.25929,88.22431 48.25929,87.27903 L48.25929,12.66397 C48.25929,11.71869 49.02573,10.95225 49.97101,10.95225 C50.91629,10.95225 51.68273,11.71869 51.68273,12.66397 L51.68273,87.27904 C51.68273,88.22431 50.91629,88.99075 49.97101,88.99075 Z" id="Path"></path>
                <path d="M24.07511,43.58204 C23.51502,43.58204 22.96672,43.30789 22.63852,42.80282 C20.19278,39.04234 15.13329,37.9369 11.35905,40.34824 C10.56215,40.85429 9.50485,40.62239 8.99585,39.8245 C8.48784,39.0276 8.72268,37.9703 9.51959,37.46131 C14.86896,34.04868 22.04207,35.60809 25.50776,40.93781 C26.02265,41.7298 25.79862,42.79004 25.00564,43.30494 C24.71774,43.49261 24.39446,43.58204 24.07511,43.58204 Z" id="Path"></path>
                <path d="M15.74251,87.90594 C14.90139,87.90594 14.16737,87.28492 14.04946,86.42808 C13.91975,85.49263 14.57418,84.62792 15.51061,84.49822 C17.64584,84.20343 19.54622,83.08128 20.859,81.33616 C22.17178,79.59103 22.73089,77.44892 22.43512,75.30485 C22.30541,74.3694 22.95984,73.50469 23.89627,73.37499 C24.82681,73.25314 25.69643,73.90167 25.82515,74.83712 C26.24669,77.88324 25.45372,80.92149 23.59362,83.39375 C21.72861,85.87191 19.02445,87.46769 15.97834,87.89021 C15.89973,87.90005 15.82014,87.90594 15.74251,87.90594 Z" id="Path"></path>
                <path d="M49.97101,56.64495 C49.26058,56.64495 48.59633,56.19884 48.35264,55.48939 C47.26292,52.31554 44.31801,50.12037 41.02428,50.02702 C40.079,50.00049 39.33516,49.21243 39.36169,48.26813 C39.38921,47.32384 40.23622,46.64583 41.12058,46.60554 C45.83321,46.73918 50.0398,49.86292 51.58938,54.37706 C51.89694,55.27124 51.42037,56.24403 50.52619,56.55257 C50.34244,56.61547 50.15476,56.64495 49.97101,56.64495 Z" id="Path"></path>
                <path d="M34.51149,67.6542 C24.76393,67.6542 16.69959,60.36907 15.75234,50.70896 C15.65997,49.7686 16.34781,48.93141 17.28817,48.83904 C18.22461,48.73783 19.06671,49.43451 19.15809,50.37487 C19.93338,58.27413 26.53362,64.23076 34.51149,64.23076 C35.45677,64.23076 36.22321,64.9972 36.22321,65.94248 C36.22321,66.88776 35.45677,67.6542 34.51149,67.6542 Z" id="Path"></path>
                <path d="M14.14674,66.05843 C13.70849,66.05843 13.27025,65.89138 12.93616,65.55729 C12.26798,64.88715 12.26798,63.8043 12.93714,63.13612 C15.68454,60.39069 19.60813,59.186 23.42756,59.92689 C24.35515,60.10572 24.96241,61.00384 24.78357,61.93143 C24.60473,62.85902 23.71546,63.4761 22.77903,63.28744 C20.07388,62.77058 17.29995,63.61367 15.35634,65.55728 C15.02226,65.89138 14.58499,66.05843 14.14674,66.05843 Z" id="Path"></path>
                <path d="M41.2434,89.16173 C40.29812,89.16173 39.53168,88.39529 39.53168,87.45001 C39.53168,84.24274 38.50878,81.02762 36.65065,78.39617 C36.10628,77.62383 36.29003,76.55671 37.06138,76.01234 C37.83667,75.466 38.90084,75.64877 39.44718,76.42307 C41.70917,79.62641 42.95513,83.54312 42.95513,87.45001 C42.95512,88.39529 42.18868,89.16173 41.2434,89.16173 Z" id="Path"></path>
                <path d="M36.79608,16.60034 C36.20651,16.60034 35.63266,16.29573 35.31528,15.74939 C34.13122,13.71537 32.07362,12.25324 29.81066,11.83759 C28.8811,11.66661 28.265,10.77538 28.43598,9.84582 C28.60597,8.91626 29.49917,8.28935 30.42774,8.47114 C33.70968,9.07348 36.5691,11.09866 38.27296,14.02784 C38.74855,14.84538 38.47145,15.89285 37.65489,16.36745 C37.38368,16.52566 37.08791,16.60034 36.79608,16.60034 Z" id="Path"></path>
                <path d="M40.67152,37.53599 C40.43471,37.53599 40.19397,37.48686 39.96403,37.38172 C34.43582,34.86917 30.42675,29.82736 29.23974,23.89529 C29.05501,22.9677 29.65539,22.06664 30.582,21.88092 C31.51745,21.70208 32.41065,22.29755 32.59637,23.22318 C33.5672,28.07927 36.8511,32.20725 41.38097,34.26682 C42.24076,34.6579 42.62202,35.67196 42.22995,36.53274 C41.94401,37.16358 41.32201,37.53599 40.67152,37.53599 Z" id="Path"></path>
                <path d="M34.85246,44.32391 C34.02313,44.32391 33.29501,43.7196 33.16334,42.87455 C32.6003,39.25164 33.09849,35.54815 34.60189,32.16304 C34.98609,31.29834 35.9972,30.9102 36.86093,31.29342 C37.72465,31.67762 38.11376,32.68874 37.73054,33.55246 C36.49343,36.33523 36.08367,39.37742 36.5455,42.34983 C36.69093,43.28332 36.05124,44.15785 35.11677,44.30328 C35.02835,44.31703 34.93991,44.32391 34.85246,44.32391 Z" id="Path"></path>
                <path d="M60.06839,100 C53.55757,100 48.25929,94.29296 48.25929,87.27904 C48.25929,86.33376 49.02573,85.56732 49.97101,85.56732 C50.91629,85.56732 51.68273,86.33376 51.68273,87.27904 C51.68273,92.40634 55.44419,96.57656 60.06839,96.57656 C62.91798,96.57656 65.62608,94.93952 67.14127,92.30218 C67.38495,91.87572 67.79962,91.57504 68.27914,91.47678 C68.76258,91.38048 69.26175,91.48857 69.65284,91.78336 C71.02457,92.81511 72.6852,93.38109 74.32813,93.38109 C78.32345,93.38109 81.79013,90.23082 82.57033,85.89158 C82.65484,85.42582 82.928,85.01508 83.32498,84.75764 C83.72392,84.50019 84.2172,84.42355 84.6692,84.5336 C84.75173,84.54932 84.8441,84.5395 84.93843,84.5395 C89.53119,84.5395 93.2671,80.36927 93.2671,75.24197 C93.2671,74.65437 93.21797,74.05693 93.11971,73.46933 C93.02734,72.9171 93.21208,72.35307 93.61495,71.96199 C95.49765,70.13039 96.57656,67.54217 96.57656,64.85963 C96.57656,61.57572 94.97882,58.52371 92.40829,56.89453 C92.01918,56.64691 91.74601,56.25386 91.64971,55.80382 C91.55537,55.35182 91.64381,54.88212 91.90126,54.4989 C93.07254,52.74198 93.66604,50.83472 93.66604,48.83018 C93.66604,45.25935 91.746,41.9607 88.77457,40.42487 C87.95311,40.00038 87.61705,38.99811 88.01796,38.16288 C88.69007,36.76461 89.04578,35.24549 89.04578,33.77058 C89.04578,29.02355 85.81691,25.04592 81.53466,24.51629 C81.0689,24.4593 80.64441,24.21168 80.36731,23.83239 C80.08825,23.4531 79.97623,22.97555 80.06073,22.51273 C80.15703,21.98801 80.20419,21.4574 80.20419,20.93563 C80.20419,15.80833 76.44273,11.63712 71.81853,11.63712 C71.23879,11.63712 70.73962,11.69313 70.33085,11.80515 C69.87295,11.92798 69.3895,11.86116 68.9886,11.61551 C68.58572,11.36986 68.30273,10.96993 68.20447,10.5081 C67.32208,6.33689 63.97725,3.42343 60.0684,3.42343 C55.4442,3.42343 51.68274,7.56811 51.68274,12.66397 C51.68274,13.60925 50.9163,14.37569 49.97102,14.37569 C49.02574,14.37569 48.2593,13.60925 48.2593,12.66397 C48.25929,5.68149 53.55757,0 60.06839,0 C65.0935,0 69.4465,3.31437 71.12283,8.23532 C71.34884,8.22156 71.58073,8.2137 71.81852,8.2137 C78.32935,8.2137 83.62762,13.92074 83.62762,20.93565 C83.62762,21.10761 83.62369,21.28055 83.61583,21.45349 C88.76475,22.8999 92.46922,27.91224 92.46922,33.7706 C92.46922,35.25337 92.20588,36.76267 91.69884,38.20515 C95.01616,40.53788 97.08948,44.54991 97.08948,48.83019 C97.08948,50.99097 96.58245,53.05839 95.57822,54.99415 C98.33741,57.3603 100,61.00188 100,64.85963 C100,68.15926 98.77566,71.36063 96.6139,73.7759 C96.66499,74.26525 96.69054,74.75459 96.69054,75.24196 C96.69054,82.01809 91.77156,87.57185 85.59679,87.94328 C84.05408,93.15705 79.51635,96.80452 74.32813,96.80452 C72.53387,96.80452 70.73176,96.34269 69.1124,95.48388 C66.89758,98.304 63.56454,100 60.06839,100 Z" id="Path"></path>
                <path d="M75.9239,43.58204 C75.60356,43.58204 75.28127,43.49262 74.99238,43.30494 C74.20039,42.79005 73.97635,41.72981 74.49124,40.93781 C77.99329,35.55208 85.01311,34.0192 90.47253,37.4564 C91.27238,37.9595 91.51214,39.01679 91.00904,39.81664 C90.50397,40.61649 89.45061,40.85625 88.6488,40.35315 C84.79104,37.92215 79.83079,39.00303 77.36049,42.80282 C77.0323,43.30788 76.484,43.58204 75.9239,43.58204 Z" id="Path"></path>
                <path d="M84.2565,87.90594 C84.17986,87.90594 84.10125,87.90004 84.02264,87.89022 C80.98046,87.47359 78.28022,85.89551 76.42308,83.44486 C74.54825,80.97062 73.7484,77.91469 74.17289,74.83713 C74.30456,73.89971 75.18498,73.26495 76.10275,73.375 C77.04017,73.5047 77.69262,74.36941 77.56489,75.30486 C77.26421,77.47645 77.82823,79.63231 79.15084,81.37744 C80.45575,83.09898 82.35024,84.20738 84.48645,84.49824 C85.42191,84.62598 86.07829,85.48872 85.95055,86.42613 C85.83262,87.28297 85.09959,87.90594 84.2565,87.90594 Z" id="Path"></path>
                <path d="M49.97101,69.99479 C49.7794,69.99479 49.58484,69.96335 49.39421,69.89456 C48.50396,69.57619 48.04115,68.59554 48.35952,67.70529 C49.97298,63.20097 54.09211,60.15682 58.85387,59.9544 C59.70875,59.88955 60.59507,60.64616 60.63634,61.59144 C60.67761,62.53475 59.94458,63.33264 58.9993,63.37391 C55.63482,63.51737 52.72431,65.67127 51.5825,68.86085 C51.33194,69.55851 50.67358,69.99479 49.97101,69.99479 Z" id="Path"></path>
                <path d="M65.48654,67.6542 C64.54127,67.6542 63.77482,66.88776 63.77482,65.94248 C63.77482,64.99721 64.54127,64.23076 65.48654,64.23076 C73.4654,64.23076 80.06662,58.27413 80.83896,50.37487 C80.93133,49.43549 81.75476,48.74569 82.70986,48.83904 C83.65121,48.93042 84.33904,49.76859 84.24667,50.70896 C83.29943,60.36907 75.23411,67.6542 65.48654,67.6542 Z" id="Path"></path>
                <path d="M85.79528,66.05843 C85.35113,66.05843 84.90503,65.88549 84.57094,65.54158 C82.71183,63.6353 79.88582,62.7706 77.22096,63.28745 C76.2914,63.47611 75.39525,62.85903 75.21642,61.93144 C75.03758,61.00385 75.64484,60.10573 76.57243,59.9269 C80.4125,59.18797 84.32528,60.39069 87.01962,63.15185 C87.67994,63.82789 87.66618,64.91073 86.99014,65.57105 C86.65802,65.89531 86.22567,66.05843 85.79528,66.05843 Z" id="Path"></path>
                <path d="M58.75561,89.16173 C57.81034,89.16173 57.04389,88.39529 57.04389,87.45001 C57.04389,83.54312 58.28985,79.62641 60.5538,76.42307 C61.09424,75.64877 62.16529,75.46207 62.93763,76.01234 C63.70997,76.5567 63.8947,77.62383 63.34836,78.39617 C61.49121,81.02959 60.46733,84.24471 60.46733,87.45001 C60.46733,88.39529 59.70089,89.16173 58.75561,89.16173 Z" id="Path"></path>
                <path d="M63.20294,16.60034 C62.91208,16.60034 62.61533,16.52566 62.34413,16.36746 C61.52659,15.89286 61.24949,14.84539 61.72508,14.02785 C63.42894,11.09867 66.28836,9.07349 69.5703,8.47115 C70.49985,8.29919 71.3901,8.91628 71.56108,9.84583 C71.73206,10.77539 71.11694,11.66662 70.18738,11.8376 C67.92539,12.25325 65.86779,13.71538 64.68472,15.7494 C64.36636,16.29573 63.79251,16.60034 63.20294,16.60034 Z" id="Path"></path>
                <path d="M59.09756,44.26692 C58.66717,44.26692 58.23679,44.10577 57.90466,43.78249 C57.22665,43.12414 57.21093,42.04031 57.86929,41.3623 C61.36151,37.76887 62.89636,32.70348 61.9786,27.81102 C61.80369,26.88245 62.41685,25.98826 63.34444,25.81336 C64.29365,25.64238 65.16818,26.25161 65.34308,27.18018 C66.46523,33.16334 64.59039,39.35776 60.32584,43.74809 C59.98978,44.09299 59.54367,44.26692 59.09756,44.26692 Z" id="Path"></path>
                <path d="M63.77286,34.62646 C62.96712,34.62646 62.2498,34.05458 62.09259,33.23409 C61.91768,32.30552 62.5269,31.40937 63.45646,31.23348 C66.49078,30.65766 69.23229,29.27217 71.38225,27.22538 C72.06222,26.5739 73.149,26.59945 73.80145,27.28532 C74.45194,27.97021 74.4264,29.05403 73.74053,29.70551 C71.11301,32.20627 67.77801,33.89735 64.09319,34.596 C63.9851,34.61663 63.87898,34.62646 63.77286,34.62646 Z" id="Path"></path>
            </g>
        </g>
    </g>
</svg>